<svg height="421pt" viewBox="0 0 421 421.4" width="421pt" xmlns="http://www.w3.org/2000/svg"><path d="m241.101562 88.699219c0 48.988281-39.714843 88.699219-88.703124 88.699219-48.984376 0-88.699219-39.710938-88.699219-88.699219s39.714843-88.699219 88.699219-88.699219c48.988281 0 88.703124 39.710938 88.703124 88.699219zm0 0"/><path d="m241 263.5c-25.726562-18.558594-56.679688-28.46875-88.398438-28.300781h-.300781c-41.101562.101562-79.402343 16.101562-107.699219 45.101562-27.203124 28-42.902343 65.699219-44.402343 107l256.199219-.5v-104.800781c-7.871094-3.246094-13.636719-10.167969-15.398438-18.5zm0 0"/><path d="m408.699219 246.5h-142.5c-3.109375-.023438-6.101563 1.199219-8.300781 3.398438-2.199219 2.199218-3.421876 5.191406-3.398438 8.300781v.902343c.441406 5.476563 4.574219 9.9375 10 10.796876.5625.082031 1.132812.117187 1.699219.101562h142.5c.570312.015625 1.136719-.015625 1.699219-.101562h.101562c2.496094-.371094 4.804688-1.527344 6.601562-3.296876 2.1875-2.207031 3.410157-5.195312 3.398438-8.300781-.046875-6.5-5.300781-11.753906-11.800781-11.800781zm0 0"/><path d="m309 209.199219h56.800781v23.300781h-56.800781zm0 0"/><path d="m270.398438 407.101562c0 7.894532 6.402343 14.296876 14.300781 14.296876h105.402343c7.894532 0 14.296876-6.402344 14.296876-14.296876v-123.101562h-134zm94.203124-58.703124c0-3.863282 3.132813-7 7-7 3.863282 0 7 3.136718 7 7v45.101562c0 3.867188-3.136718 7-7 7-3.867187 0-7-3.132812-7-7zm-34.203124 0c0-3.863282 3.136718-7 7-7 3.867187 0 7 3.136718 7 7v45.101562c0 3.867188-3.132813 7-7 7-3.863282 0-7-3.132812-7-7zm-34.097657 0c0-3.863282 3.132813-7 7-7 3.863281 0 7 3.136718 7 7v45.101562c0 3.867188-3.136719 7-7 7-3.867187 0-7-3.132812-7-7zm0 0"/></svg>