<?xml version="1.0" encoding="iso-8859-1"?>
<!-- Generator: Adobe Illustrator 19.0.0, SVG Export Plug-In . SVG Version: 6.00 Build 0)  -->
<svg version="1.1" id="Capa_1" xmlns="http://www.w3.org/2000/svg" xmlns:xlink="http://www.w3.org/1999/xlink" x="0px" y="0px"
	 viewBox="0 0 512 512" style="enable-background:new 0 0 512 512;" xml:space="preserve">
<g>
	<g>
		<path d="M469.333,64H42.667C19.146,64,0,83.135,0,106.667v298.667C0,428.865,19.146,448,42.667,448h426.667
			C492.854,448,512,428.865,512,405.333V106.667C512,83.135,492.854,64,469.333,64z M202.667,320c-1.771,0-3.563-0.448-5.167-1.333
			c-3.396-1.885-5.5-5.458-5.5-9.333V288H96c-5.896,0-10.667-4.771-10.667-10.667v-42.667C85.333,228.771,90.104,224,96,224h96
			v-21.333c0-3.875,2.104-7.448,5.5-9.333c3.396-1.865,7.563-1.76,10.813,0.292l85.333,53.333c3.125,1.948,5.021,5.365,5.021,9.042
			s-1.896,7.094-5.021,9.042l-85.333,53.333C206.604,319.458,204.625,320,202.667,320z M426.667,394.667
			c0,5.896-4.771,10.667-10.667,10.667H245.333c-5.896,0-10.667-4.771-10.667-10.667v-61.698c0-3.677,1.896-7.094,5.021-9.042
			l65.271-40.792C314.375,277.25,320,267.104,320,256s-5.625-21.25-15.042-27.125l-65.271-40.802
			c-3.125-1.948-5.021-5.365-5.021-9.042v-61.698c0-5.896,4.771-10.667,10.667-10.667H416c5.896,0,10.667,4.771,10.667,10.667
			V394.667z"/>
	</g>
</g>
<g>
</g>
<g>
</g>
<g>
</g>
<g>
</g>
<g>
</g>
<g>
</g>
<g>
</g>
<g>
</g>
<g>
</g>
<g>
</g>
<g>
</g>
<g>
</g>
<g>
</g>
<g>
</g>
<g>
</g>
</svg>
