<svg width="566" height="383" viewBox="0 0 566 383" fill="none" xmlns="http://www.w3.org/2000/svg">
<path opacity="0.1" d="M10.9594 122.114C6.69774 135.441 19.2274 147.427 29.0825 157.08C42.5719 170.322 53.2157 186.345 60.3235 204.11C64.6073 214.846 67.5871 226.396 66.7881 237.981C64.5241 270.837 34.5705 292.727 10.6375 314.491C7.24709 317.604 3.85664 320.86 1.88119 325.055C-4.46134 338.52 6.3204 354.036 18.1953 362.623C60.4844 393.186 121.524 384.095 162.542 351.738C183.784 334.978 202.04 312.187 227.782 304.736C244.24 299.995 261.709 302.242 278.738 303.704C304.273 305.889 329.926 306.203 355.504 304.644C364.482 304.071 373.871 303.176 381.39 298.081C400.428 285.195 397.216 254.644 410.955 235.9C420.832 222.43 437.707 217.237 452.395 209.791C475.003 198.267 493.868 180.184 506.681 157.756C518.473 137.023 524.582 113.453 530.542 90.2159C535.037 72.7562 539.548 54.4712 535.741 36.8339C531.935 19.1965 516.908 2.72853 499.484 4.27617C486.105 5.46269 475.462 16.3821 462.578 20.2913C431.714 29.6803 401.749 -2.92894 369.731 0.217918C349.572 2.19545 333.313 17.9871 321.022 34.6098C308.731 51.2326 298.326 69.9476 282.096 82.4662C256.848 101.955 222.255 102.643 191.347 96.3319C160.439 90.021 130.785 77.5998 99.5328 73.4613C81.1212 71.0252 67.01 82.3573 50.4296 88.588C35.2141 94.3085 16.5972 104.489 10.9594 122.114Z" fill="#1039FF"/>
<path opacity="0.1" d="M76.5487 383C98.8409 383 116.912 377.328 116.912 370.332C116.912 363.336 98.8409 357.665 76.5487 357.665C54.2565 357.665 36.1852 363.336 36.1852 370.332C36.1852 377.328 54.2565 383 76.5487 383Z" fill="#1039FF"/>
<path opacity="0.1" d="M458.199 215.7C517.736 215.7 566 212.393 566 208.312C566 204.231 517.736 200.923 458.199 200.923C398.662 200.923 350.398 204.231 350.398 208.312C350.398 212.393 398.662 215.7 458.199 215.7Z" fill="#1039FF"/>
<g opacity="0.5">
<path opacity="0.5" d="M393.026 39.2068C394.521 39.2068 395.955 39.8204 397.012 40.9125C398.07 42.0047 398.664 43.4859 398.664 45.0305V206.959H387.388V45.0248C387.39 43.4812 387.984 42.0014 389.041 40.9105C390.098 39.8196 391.532 39.2068 393.026 39.2068Z" fill="#1039FF"/>
<path opacity="0.5" d="M516.73 39.2068C518.226 39.2068 519.66 39.8204 520.717 40.9125C521.774 42.0047 522.368 43.486 522.368 45.0305V206.959H511.065V45.0248C511.065 44.2581 511.213 43.499 511.498 42.7913C511.783 42.0835 512.201 41.4409 512.728 40.9003C513.254 40.3598 513.879 39.9319 514.566 39.6413C515.252 39.3507 515.988 39.203 516.73 39.2068Z" fill="#1039FF"/>
<path opacity="0.5" d="M549.636 75.4043C552.75 75.4043 555.274 72.7969 555.274 69.5806C555.274 66.3642 552.75 63.7569 549.636 63.7569L360.126 63.7569C357.012 63.7569 354.488 66.3642 354.488 69.5806C354.488 72.7969 357.012 75.4043 360.126 75.4043L549.636 75.4043Z" fill="#1039FF"/>
<path opacity="0.5" d="M384.037 52.2643C384.037 49.7444 382.059 47.7016 379.62 47.7016C377.18 47.7016 375.202 49.7444 375.202 52.2643V86.8855C375.202 89.4054 377.18 91.4481 379.62 91.4481C382.059 91.4481 384.037 89.4054 384.037 86.8855V52.2643Z" fill="#1039FF"/>
<path opacity="0.5" d="M375.202 56.3569C375.202 53.837 373.225 51.7943 370.785 51.7943C368.346 51.7943 366.368 53.837 366.368 56.3569V82.7986C366.368 85.3185 368.346 87.3612 370.785 87.3612C373.225 87.3612 375.202 85.3185 375.202 82.7986V56.3569Z" fill="#1039FF"/>
<path opacity="0.5" d="M525.72 86.8855C525.72 89.4054 527.697 91.4481 530.137 91.4481C532.576 91.4481 534.554 89.4054 534.554 86.8855V52.2643C534.554 49.7444 532.576 47.7016 530.137 47.7016C527.697 47.7016 525.72 49.7444 525.72 52.2643V86.8855Z" fill="#1039FF"/>
<path opacity="0.5" d="M534.554 82.7928C534.554 85.3127 536.531 87.3555 538.971 87.3555C541.41 87.3555 543.388 85.3127 543.388 82.7928V56.3511C543.388 53.8313 541.41 51.7885 538.971 51.7885C536.531 51.7885 534.554 53.8313 534.554 56.3511V82.7928Z" fill="#1039FF"/>
</g>
<g opacity="0.5">
<path opacity="0.5" d="M443.622 106.982H466.673C469.174 106.982 471.574 108.008 473.343 109.836C475.112 111.663 476.106 114.142 476.106 116.726V157.63H434.211V116.726C434.211 114.146 435.202 111.671 436.966 109.844C438.73 108.017 441.124 106.988 443.622 106.982Z" fill="#1039FF"/>
<path opacity="0.5" d="M458.199 153.955H452.068V175.066H458.199V153.955Z" fill="#1039FF"/>
<path opacity="0.5" d="M445.936 177.703H439.804V198.814H445.936V177.703Z" fill="#1039FF"/>
<path opacity="0.5" d="M471.484 177.703H465.352V198.814H471.484V177.703Z" fill="#1039FF"/>
<path opacity="0.5" d="M476.084 173.479H434.189V179.285H476.084V173.479Z" fill="#1039FF"/>
</g>
<path opacity="0.1" d="M262.519 348.694C389.493 348.694 492.425 340.898 492.425 331.28C492.425 321.663 389.493 313.867 262.519 313.867C135.544 313.867 32.6116 321.663 32.6116 331.28C32.6116 340.898 135.544 348.694 262.519 348.694Z" fill="#1039FF"/>
<path d="M322.043 269.266C322.043 269.266 337.88 276.654 345.543 276.654C345.543 276.654 353.717 278.764 358.306 280.879C362.895 282.994 380.785 284.043 380.785 284.043C380.785 284.043 401.732 291.959 404.285 295.656C406.837 299.353 414.501 282.472 414.501 282.472L410.411 271.92L333.28 256.615L322.043 269.266Z" fill="#FFB9B9"/>
<path opacity="0.05" d="M322.043 269.266C322.043 269.266 337.88 276.654 345.543 276.654C345.543 276.654 353.717 278.764 358.306 280.879C362.895 282.994 380.785 284.043 380.785 284.043C380.785 284.043 401.732 291.959 404.285 295.656C406.837 299.353 414.501 282.472 414.501 282.472L410.411 271.92L333.28 256.615L322.043 269.266Z" fill="black"/>
<path d="M400.212 292.492C400.212 292.492 409.917 305.675 405.833 313.603C401.749 321.53 403.281 321.519 405.833 322.046C408.386 322.573 422.691 325.743 424.228 314.13C425.765 302.517 428.828 276.66 428.828 276.66L407.853 274.545C407.853 274.545 413.496 294.074 400.212 292.492Z" fill="#737A9D"/>
<path d="M279.637 251.852L323.574 272.963C323.574 272.963 337.369 261.877 336.337 256.077L285.247 243.409L279.637 251.852Z" fill="#4C4C78"/>
<path opacity="0.1" d="M279.637 251.852L323.574 272.963C323.574 272.963 337.369 261.877 336.337 256.077L285.247 243.409L279.637 251.852Z" fill="black"/>
<path d="M464.076 279.297L459.459 290.904L448.749 293.529C445.748 290.942 442.539 288.626 439.155 286.605C433.39 283.166 425.804 279.801 418.624 280.334C418.624 280.334 390.013 275.583 388.481 273.456C388.481 273.456 370.086 269.232 366.002 269.759C364.032 270.011 359.798 268.549 355.947 266.962C351.813 265.242 348.118 263.425 348.118 263.425L361.402 241.787C362.951 242.476 364.546 243.05 366.174 243.506C371.252 245.043 380.391 247.037 393.592 247.037C415.05 247.037 444.682 269.73 444.682 269.73C444.682 269.73 444.976 269.833 445.481 269.988C447.7 270.682 454.026 272.315 456.945 269.73C460.496 266.629 464.076 279.297 464.076 279.297Z" fill="#FFB9B9"/>
<path opacity="0.1" d="M464.076 279.297L459.459 290.904L448.749 293.529C445.748 290.942 442.539 288.626 439.155 286.605C454.737 287.815 445.431 270.045 445.431 270.045H445.464C447.684 270.739 454.01 272.373 456.928 269.788C460.496 266.629 464.076 279.297 464.076 279.297Z" fill="black"/>
<path d="M439.216 287.052C439.216 287.052 451.574 304.953 446.374 315.036C441.175 325.118 443.122 325.113 446.374 325.789C449.626 326.465 467.843 330.495 469.791 315.712C471.289 304.346 469.974 282.53 469.286 273.06C469.242 272.463 469.084 271.88 468.82 271.346C468.556 270.812 468.192 270.338 467.749 269.951C467.306 269.563 466.792 269.271 466.239 269.09C465.686 268.91 465.103 268.845 464.525 268.899L446.452 270.619C446.452 270.619 456.129 289.07 439.216 287.052Z" fill="#737A9D"/>
<path d="M145.778 304.627L146.289 330.489L151.91 334.708H171.326L174.9 329.435V304.627L169.278 299.347H150.889L145.778 304.627Z" fill="#1039FF"/>
<path opacity="0.2" d="M148.841 305.154C148.841 305.154 152.42 328.902 148.841 331.017L146.289 330.489L145.778 305.16L148.841 305.154Z" fill="white"/>
<path d="M190.736 303.045L194.826 298.82H214.248L218.337 303.045C218.337 303.045 223.448 318.349 219.358 328.374L214.747 333.126H195.325L190.725 328.902L190.736 303.045Z" fill="#1039FF"/>
<path opacity="0.1" d="M145.778 304.627L146.289 330.489L151.91 334.708H171.326L174.9 329.435V304.627L169.278 299.347H150.889L145.778 304.627Z" fill="black"/>
<path opacity="0.1" d="M190.736 303.045L194.826 298.82H214.248L218.337 303.045C218.337 303.045 223.448 318.349 219.358 328.374L214.747 333.126H195.325L190.725 328.902L190.736 303.045Z" fill="black"/>
<path opacity="0.2" d="M195.325 304.099C195.325 304.099 199.415 322.573 195.325 328.902H190.725V303.044L195.325 304.099Z" fill="white"/>
<path d="M174.9 215.437C174.9 215.437 176.942 236.02 176.942 238.657C176.942 241.294 175.921 258.719 178.984 275.6C182.047 292.48 176.942 313.591 176.942 313.591H193.8L200.952 256.592L195.842 226.511L193.8 217.013L174.9 215.437Z" fill="#FFB9B9"/>
<path opacity="0.05" d="M174.9 215.437C174.9 215.437 176.942 236.02 176.942 238.657C176.942 241.294 175.921 258.719 178.984 275.6C182.047 292.48 176.942 313.591 176.942 313.591H193.8L200.952 256.592L195.842 226.511L193.8 217.013L174.9 215.437Z" fill="black"/>
<path d="M171.836 163.19C171.836 163.19 149.357 163.717 167.236 202.242C167.236 202.242 171.836 218.073 171.836 220.716C171.836 223.358 194.826 223.353 197.362 220.716C199.898 218.079 193.272 196.441 193.272 186.41C193.272 176.379 186.652 160.026 171.836 163.19Z" fill="#CBCDDA"/>
<path opacity="0.05" d="M171.836 163.19C171.836 163.19 149.357 163.717 167.236 202.242C167.236 202.242 171.836 218.073 171.836 220.716C171.836 223.358 194.826 223.353 197.362 220.716C199.898 218.079 193.272 196.441 193.272 186.41C193.272 176.379 186.652 160.026 171.836 163.19Z" fill="black"/>
<path d="M144.757 140.485C144.757 140.485 164.179 162.124 180.521 146.292L178.479 202.236C178.479 202.236 151.91 168.99 133.532 171.627L144.757 140.485Z" fill="#FFB9B9"/>
<path opacity="0.1" d="M366.152 243.569C365.375 249.754 362.934 262.777 355.925 266.996C351.791 265.276 348.096 263.459 348.096 263.459L361.38 241.821C362.929 242.52 364.523 243.104 366.152 243.569Z" fill="black"/>
<path d="M364.959 240.222C364.959 240.222 363.427 266.085 351.164 268.194L277.096 254.391C273.501 253.717 270.121 252.142 267.252 249.806C264.261 247.375 260.593 244.074 258.423 241.047C257.247 239.396 256.537 237.82 256.653 236.519C257.164 230.712 279.643 216.99 271.98 192.715C273.069 191.824 274.281 191.105 275.575 190.583C281.973 187.837 296.701 185.82 317.959 208.547C317.959 208.576 357.296 241.299 364.959 240.222Z" fill="#4C4C78"/>
<path d="M164.684 306.736L165.194 332.599L170.81 336.823H190.226L193.805 331.544V306.736L188.184 301.462H169.789L164.684 306.736Z" fill="#1039FF"/>
<path opacity="0.2" d="M167.747 307.286C167.747 307.286 171.326 331.034 167.747 333.149L165.194 332.622L164.684 307.286H167.747Z" fill="white"/>
<path d="M220.884 304.627L224.974 300.402H244.395L248.485 304.627C248.485 304.627 253.596 319.931 249.506 329.956L244.906 334.708H225.484L220.884 330.484V304.627Z" fill="#1039FF"/>
<path opacity="0.2" d="M225.479 305.681C225.479 305.681 229.568 324.155 225.479 330.484H220.879V304.627L225.479 305.681Z" fill="white"/>
<path d="M193.661 314.658H221.3C223.465 314.658 225.218 316.664 225.218 319.146C225.218 321.622 223.465 323.634 221.3 323.634H193.661C191.314 323.634 189.493 321.289 189.776 318.624C190.004 316.36 191.68 314.658 193.661 314.658Z" fill="#1039FF"/>
<path opacity="0.1" d="M273.506 232.323C268.04 236.278 262.28 238.869 258.418 241.076C257.241 239.425 256.531 237.849 256.648 236.548C257.158 230.741 279.637 217.019 271.974 192.744C273.064 191.853 274.275 191.134 275.57 190.612C276.77 190.585 277.964 190.416 279.127 190.107C279.127 190.107 283.721 224.935 273.506 232.323Z" fill="black"/>
<path d="M158.807 181.394C158.807 181.394 166.471 189.31 173.879 194.326C180.715 198.952 168.513 152.368 168.513 152.368C168.513 152.368 176.081 146.063 180.526 142.32C183.495 139.797 187.277 138.527 191.114 138.766C201.341 139.448 220.074 143.89 235.19 165.305C257.158 196.441 277.085 190.107 277.085 190.107C277.085 190.107 281.685 224.94 271.464 232.329C261.242 239.717 250.006 242.354 252.042 246.579C254.079 250.803 242.847 225.995 217.3 221.776C191.752 217.558 163.652 199.083 164.168 190.113C164.173 190.107 156.765 184.048 158.807 181.394Z" fill="#CBCDDA"/>
<path opacity="0.1" d="M153.441 154.242C153.439 152.716 153.309 151.194 153.053 149.691C146.361 146.252 147.31 141.574 147.31 141.574L136.068 172.711C140.179 172.137 144.702 173.33 149.241 175.577C155.217 170.699 153.441 162.662 153.441 154.242Z" fill="black"/>
<path d="M130.962 180.082C145.072 180.082 156.51 168.267 156.51 153.692C156.51 139.117 145.072 127.302 130.962 127.302C116.853 127.302 105.415 139.117 105.415 153.692C105.415 168.267 116.853 180.082 130.962 180.082Z" fill="#FFB9B9"/>
<path opacity="0.1" d="M107.751 159.642C107.279 161.206 106.552 162.817 105.182 163.654C103.517 164.674 101.22 164.17 99.7381 162.852C98.2565 161.533 97.4574 159.561 97.0413 157.59C96.4418 154.735 96.5371 151.771 97.3187 148.963C97.9846 146.584 99.1332 144.377 99.616 141.941C100.132 139.35 99.8713 136.639 100.448 134.06C101.231 130.563 103.461 127.634 105.637 124.831C106.318 123.761 107.202 122.844 108.234 122.135C109.267 121.426 110.427 120.94 111.646 120.704L122.339 117.374C124.366 116.673 126.45 116.159 128.565 115.838C131.285 115.55 134.032 115.799 136.661 116.571C138.755 117.115 140.742 118.031 142.532 119.277C144.306 120.638 145.869 122.272 147.166 124.121C152.82 131.756 156.044 144.246 161.876 151.76C159.573 152.494 157.27 150.041 154.967 150.786C154.64 150.931 154.275 150.962 153.93 150.872C153.587 150.68 153.319 150.372 153.17 150C151.14 146.339 147.946 143.515 144.13 142.01C141.3 140.904 137.471 140.91 135.923 143.592C134.874 145.403 135.296 147.69 135.574 149.783C135.851 151.875 135.801 154.368 134.198 155.658C133.311 156.277 132.28 156.637 131.212 156.701C126.235 157.375 121.175 156.863 116.418 155.205C114.754 154.632 113.061 152.838 111.302 153.411C108.927 154.185 108.378 157.561 107.751 159.642Z" fill="black"/>
<path d="M107.19 159.063C106.719 160.628 105.992 162.238 104.621 163.075C102.957 164.095 100.659 163.591 99.1776 162.273C97.696 160.954 96.897 158.982 96.4808 157.011C95.8813 154.156 95.9767 151.192 96.7583 148.384C97.4241 146.005 98.5728 143.798 99.0556 141.362C99.5716 138.771 99.3108 136.06 99.8879 133.481C100.67 129.984 102.901 127.055 105.076 124.252C105.758 123.182 106.641 122.266 107.674 121.556C108.707 120.847 109.867 120.361 111.086 120.125L121.779 116.795C123.806 116.096 125.89 115.583 128.005 115.265C130.724 114.977 133.472 115.226 136.101 115.998C138.195 116.542 140.181 117.458 141.972 118.704C143.746 120.065 145.308 121.699 146.605 123.547C152.26 131.182 155.484 143.672 161.316 151.187C159.013 151.921 156.71 149.467 154.407 150.212C154.08 150.358 153.715 150.388 153.369 150.298C153.023 150.108 152.75 149.801 152.598 149.427C150.569 145.765 147.375 142.942 143.559 141.437C140.729 140.331 136.9 140.336 135.352 143.019C134.303 144.83 134.725 147.117 135.002 149.209C135.28 151.302 135.23 153.795 133.626 155.085C132.74 155.703 131.708 156.064 130.641 156.128C125.663 156.802 120.603 156.29 115.847 154.632C114.182 154.059 112.49 152.265 110.731 152.838C108.367 153.606 107.817 156.982 107.19 159.063Z" fill="#B96B6B"/>
<g opacity="0.1">
<path opacity="0.1" d="M170.244 150.929L168.513 152.373C168.513 152.373 175.665 179.675 175.948 190.399C179.6 189.379 172.575 160.169 170.244 150.929Z" fill="black"/>
<path opacity="0.1" d="M272.457 228.104C262.241 235.493 250.999 238.13 253.035 242.354C255.072 246.579 243.841 221.771 218.293 217.552C194.327 213.591 168.113 197.089 165.383 187.654C161.554 184.272 158.769 181.4 158.769 181.4C156.727 184.037 164.134 190.107 164.134 190.107C163.624 199.078 191.724 217.552 217.266 221.771C242.808 225.989 254.051 250.797 252.009 246.573C249.967 242.348 261.203 239.695 271.43 232.323C274.355 230.208 276.064 225.846 277.018 220.693C276.03 223.954 274.565 226.597 272.457 228.104Z" fill="black"/>
</g>
<path d="M220.884 278.77C219.353 280.879 218.332 302.517 218.332 302.517C218.332 302.517 224.436 333.653 205.569 330.489C186.702 327.325 203.016 305.16 203.016 305.16L200.464 274.551C190.759 248.184 192.801 229.165 192.801 229.165L190.986 211.929L190.243 204.89L212.211 199.611C211.612 200.436 211.867 205.584 212.405 211.562C213.243 220.928 214.764 232.329 214.764 232.329C219.347 237.602 222.416 276.654 220.884 278.77Z" fill="#FFB9B9"/>
<path opacity="0.1" d="M189.715 152.11C189.715 152.11 167.236 152.637 185.115 191.162C185.115 191.162 189.715 206.994 189.715 209.636C189.715 212.278 212.705 212.273 215.241 209.636C217.777 206.999 211.151 185.361 211.151 175.33C211.151 165.299 204.531 148.94 189.715 152.11Z" fill="black"/>
<path opacity="0.1" d="M212.389 211.562C207.617 212.909 195.919 213.029 190.964 211.929L190.22 204.89L212.189 199.611C211.601 200.43 211.856 205.578 212.389 211.562Z" fill="black"/>
<path d="M188.694 152.11C188.694 152.11 166.215 152.637 184.094 191.162C184.094 191.162 188.694 206.994 188.694 209.636C188.694 212.278 211.684 212.273 214.22 209.636C216.756 206.999 210.13 185.361 210.13 175.33C210.13 165.299 203.51 148.94 188.694 152.11Z" fill="#CBCDDA"/>
<g opacity="0.5">
<path opacity="0.5" d="M41.6398 234.725L25.3701 235.069L22.7177 238.84V251.875L26.036 254.277H41.6398L44.9637 250.505V238.158L41.6398 234.725Z" fill="#1039FF"/>
<path opacity="0.2" d="M41.3124 236.783C41.3124 236.783 26.3689 239.184 25.0427 236.783L25.3757 235.063L41.3124 234.719V236.783Z" fill="white"/>
<path opacity="0.5" d="M42.9716 272.453L45.6296 275.199V288.233L42.9716 290.979C42.9716 290.979 33.3441 294.418 27.0348 291.666L24.0439 288.577V275.542L26.7019 272.453H42.9716Z" fill="#1039FF"/>
<path opacity="0.2" d="M42.3057 275.542C42.3057 275.542 30.6861 278.288 26.7019 275.542V272.453H42.9716L42.3057 275.542Z" fill="white"/>
<path opacity="0.5" d="M36.6624 254.185V272.739C36.6236 273.475 36.3048 274.164 35.7756 274.657C35.2463 275.15 34.5497 275.406 33.8379 275.37C33.1261 275.406 32.4295 275.15 31.9003 274.657C31.371 274.164 31.0522 273.475 31.0135 272.739V254.185C31.0135 252.609 32.4895 251.388 34.1653 251.571C34.8205 251.612 35.4381 251.901 35.8991 252.383C36.3601 252.866 36.632 253.508 36.6624 254.185Z" fill="#1039FF"/>
<path opacity="0.5" d="M67.698 235.252L51.4283 235.596L48.7703 239.368V252.402L52.0942 254.804H67.698L71.0163 251.032V238.686L67.698 235.252Z" fill="#1039FF"/>
<path opacity="0.2" d="M67.3651 237.316C67.3651 237.316 52.4216 239.717 51.0954 237.316L51.4283 235.596L67.3651 235.252V237.316Z" fill="white"/>
<path opacity="0.5" d="M69.0243 272.986L71.6822 275.732V288.766L69.0243 291.512C69.0243 291.512 59.3967 294.951 53.0875 292.2L50.0965 289.11V276.07L52.7545 272.98L69.0243 272.986Z" fill="#1039FF"/>
<path opacity="0.2" d="M68.3639 276.07C68.3639 276.07 56.7443 278.815 52.7601 276.07V272.98H69.0298L68.3639 276.07Z" fill="white"/>
<path opacity="0.5" d="M62.7039 254.712V273.267C62.6652 274.002 62.3464 274.691 61.8171 275.184C61.2879 275.677 60.5913 275.934 59.8795 275.898C59.1677 275.934 58.4711 275.677 57.9418 275.184C57.4126 274.691 57.0938 274.002 57.055 273.267V254.712C57.055 253.136 58.5311 251.915 60.2069 252.099C60.8621 252.139 61.4796 252.428 61.9407 252.911C62.4017 253.393 62.6736 254.035 62.7039 254.712Z" fill="#1039FF"/>
<path opacity="0.5" d="M100.87 245.18L87.4748 245.461L85.2884 248.568V259.298L88.0241 261.27H100.87L103.6 258.163V248L100.87 245.18Z" fill="#1039FF"/>
<path opacity="0.2" d="M100.593 246.871C100.593 246.871 88.2905 248.849 87.1973 246.871L87.4692 245.461L100.587 245.18L100.593 246.871Z" fill="white"/>
<path opacity="0.5" d="M101.963 276.236L104.15 278.494V289.225L101.963 291.483C101.963 291.483 94.0392 294.309 88.8454 292.056L86.3816 289.517V278.775L88.5679 276.236H101.963Z" fill="#1039FF"/>
<path opacity="0.2" d="M101.414 278.775C101.414 278.775 91.8474 281.034 88.5679 278.775V276.236H101.963L101.414 278.775Z" fill="white"/>
<path opacity="0.5" d="M96.7693 261.195V276.471C96.735 277.074 96.4714 277.639 96.036 278.043C95.6006 278.446 95.0286 278.656 94.4443 278.626C93.8582 278.656 93.2846 278.445 92.8489 278.039C92.4132 277.633 92.1508 277.065 92.1193 276.46V261.195C92.1386 260.872 92.2231 260.557 92.3673 260.269C92.5116 259.982 92.7125 259.729 92.9571 259.527C93.2016 259.324 93.4845 259.177 93.7874 259.094C94.0904 259.011 94.4067 258.995 94.7162 259.046C95.2549 259.079 95.7626 259.317 96.1417 259.714C96.5207 260.111 96.7443 260.638 96.7693 261.195Z" fill="#1039FF"/>
<path opacity="0.5" d="M122.317 245.61L108.922 245.897L106.735 248.998V259.728L109.471 261.705H122.317L125.053 258.599V248.436L122.317 245.61Z" fill="#1039FF"/>
<path opacity="0.2" d="M122.045 247.307C122.045 247.307 109.743 249.284 108.65 247.307L108.922 245.897L122.04 245.616L122.045 247.307Z" fill="white"/>
<path opacity="0.5" d="M123.41 276.672L125.596 278.93V289.66L123.41 291.919C123.41 291.919 115.486 294.745 110.292 292.492L107.834 289.953V279.199L110.02 276.66L123.41 276.672Z" fill="#1039FF"/>
<path opacity="0.2" d="M122.866 279.199C122.866 279.199 113.3 281.458 110.02 279.199V276.66H123.41L122.866 279.199Z" fill="white"/>
<path opacity="0.5" d="M118.194 261.631V276.907C118.163 277.512 117.9 278.08 117.465 278.486C117.029 278.892 116.455 279.103 115.869 279.073C115.283 279.103 114.709 278.892 114.274 278.486C113.838 278.08 113.576 277.512 113.544 276.907V261.631C113.563 261.308 113.648 260.992 113.792 260.705C113.936 260.418 114.137 260.165 114.382 259.962C114.626 259.76 114.909 259.612 115.212 259.53C115.515 259.447 115.832 259.43 116.141 259.481C116.68 259.515 117.187 259.753 117.566 260.15C117.946 260.546 118.169 261.074 118.194 261.631Z" fill="#1039FF"/>
</g>
<g opacity="0.8">
<path opacity="0.8" d="M65.0234 337.666C65.0234 337.666 57.1604 334.914 53.3705 342.074C52.372 344.014 51.8637 346.183 51.8928 348.381C51.9219 350.578 52.4874 352.732 53.5369 354.644C56.0229 359.287 61.1446 365.311 70.8499 364.778C79.0846 364.325 81.8203 357.831 82.5638 351.795C82.8483 349.531 82.5654 347.23 81.7422 345.111C80.9191 342.992 79.5833 341.127 77.8627 339.694C76.1421 338.262 74.0942 337.309 71.9152 336.928C69.7361 336.546 67.4988 336.749 65.4174 337.517L65.0234 337.666Z" fill="#1039FF"/>
<path opacity="0.1" d="M55.2072 355.28C54.1577 353.369 53.5922 351.214 53.5631 349.017C53.534 346.82 54.0422 344.65 55.0407 342.71C58.8251 335.551 66.6937 338.302 66.6937 338.302L67.0987 338.153C70.0965 337.032 73.3913 337.108 76.3379 338.365C74.7102 337.362 72.8872 336.745 71.0005 336.559C69.1138 336.372 67.2107 336.621 65.4285 337.287L65.0234 337.436C65.0234 337.436 57.1604 334.685 53.3705 341.844C52.372 343.785 51.8637 345.954 51.8928 348.152C51.9219 350.349 52.4874 352.503 53.5369 354.415C55.2016 357.47 57.9761 361.121 62.4154 363.11C59.367 361.227 56.8745 358.52 55.2072 355.28Z" fill="white"/>
<path opacity="0.2" d="M60.9615 341.105C60.9615 341.105 63.8748 343.472 70.9498 341.105H60.9615Z" fill="black"/>
<path opacity="0.8" d="M60.34 323.909C60.34 323.909 65.3342 337.895 64.9235 341.552L68.88 341.122C68.88 341.122 62.2212 328.861 63.8859 323.926L60.34 323.909Z" fill="#1039FF"/>
<path opacity="0.2" d="M60.34 323.909C60.34 323.909 65.3342 337.895 64.9235 341.552L68.88 341.122C68.88 341.122 62.2212 328.861 63.8859 323.926L60.34 323.909Z" fill="black"/>
<path opacity="0.8" d="M80.7382 325.055C80.7382 325.055 72.8697 320.9 69.3516 324.333C65.8336 327.767 65.2898 336.542 65.2898 336.542C65.2898 336.542 78.1191 338.371 80.7382 325.055Z" fill="#1039FF"/>
<path opacity="0.1" d="M80.7382 325.055C80.7382 325.055 72.8697 320.9 69.3516 324.333C65.8336 327.767 65.2898 336.542 65.2898 336.542C65.2898 336.542 78.1191 338.371 80.7382 325.055Z" fill="white"/>
<path opacity="0.8" d="M65.2898 336.519C65.2898 336.519 67.354 326.334 80.7382 325.055" stroke="#1039FF" stroke-miterlimit="10"/>
</g>
<path d="M98.2176 350.328C98.2176 350.328 90.3547 347.576 86.5647 354.736C85.5662 356.676 85.058 358.845 85.0871 361.043C85.1162 363.24 85.6817 365.394 86.7312 367.306C89.2171 371.949 94.3389 377.973 104.044 377.44C112.279 376.987 115.015 370.493 115.758 364.457C116.042 362.193 115.76 359.892 114.936 357.773C114.113 355.654 112.778 353.789 111.057 352.356C109.336 350.923 107.288 349.971 105.109 349.59C102.93 349.208 100.693 349.411 98.6116 350.179L98.2176 350.328Z" fill="#1039FF"/>
<path opacity="0.1" d="M88.4181 367.948C87.3686 366.036 86.8031 363.882 86.774 361.685C86.7449 359.487 87.2531 357.318 88.2516 355.378C92.036 348.218 99.9045 350.97 99.9045 350.97L100.31 350.821C103.307 349.7 106.602 349.776 109.549 351.033C107.921 350.03 106.098 349.413 104.211 349.226C102.325 349.04 100.422 349.289 98.6394 349.955L98.2343 350.104C98.2343 350.104 90.3713 347.353 86.5813 354.512C85.5828 356.452 85.0746 358.622 85.1037 360.819C85.1328 363.017 85.6983 365.171 86.7478 367.082C88.4125 370.137 91.187 373.789 95.6262 375.778C92.5778 373.895 90.0854 371.187 88.4181 367.948Z" fill="white"/>
<path opacity="0.2" d="M94.1724 353.767C94.1724 353.767 97.0856 356.134 104.161 353.767H94.1724Z" fill="black"/>
<path d="M93.5454 336.559C93.5454 336.559 98.5395 350.546 98.1289 354.203L102.085 353.773C102.085 353.773 95.4265 341.512 97.0912 336.577L93.5454 336.559Z" fill="#1039FF"/>
<path opacity="0.2" d="M93.5454 336.559C93.5454 336.559 98.5395 350.546 98.1289 354.203L102.085 353.773C102.085 353.773 95.4265 341.512 97.0912 336.577L93.5454 336.559Z" fill="black"/>
<path d="M113.949 337.723C113.949 337.723 106.081 333.567 102.563 337.001C99.0444 340.434 98.5007 349.21 98.5007 349.21C98.5007 349.21 111.33 351.033 113.949 337.723Z" fill="#1039FF"/>
<path opacity="0.1" d="M113.949 337.723C113.949 337.723 106.081 333.567 102.563 337.001C99.0444 340.434 98.5007 349.21 98.5007 349.21C98.5007 349.21 111.33 351.033 113.949 337.723Z" fill="white"/>
<path d="M98.5007 349.21C98.5007 349.21 100.565 339.024 113.949 337.746" stroke="#1039FF" stroke-miterlimit="10"/>
<path d="M34.9588 317.128C34.9588 317.128 35.7301 316.24 34.2818 315.884V314.423H35.153C35.1523 312.656 34.5645 310.942 33.4878 309.569C32.4112 308.196 30.9109 307.247 29.2378 306.879V305.108H29.4653V302.815H23.8608V305.108H24.0217V306.902C22.3708 307.289 20.8961 308.244 19.8395 309.611C18.783 310.977 18.2071 312.674 18.2063 314.423H18.9832V315.827C18.9832 315.827 17.1409 316.727 18.9832 318.332C20.8255 319.937 20.5369 321.135 20.5369 321.135C20.5369 321.135 19.7601 324.138 18.2119 324.539V352.483C18.2119 354.129 18.845 355.708 19.972 356.872C21.0991 358.037 22.6276 358.691 24.2215 358.691H28.9714C30.5605 358.685 32.0825 358.029 33.2046 356.866C34.3266 355.704 34.9574 354.13 34.9588 352.489V324.539C34.9588 324.539 32.2454 322.436 32.7392 321.135C33.3833 319.745 34.1252 318.406 34.9588 317.128Z" fill="#1039FF"/>
</svg>
