<?xml version="1.0" encoding="iso-8859-1"?>
<!-- Generator: Adobe Illustrator 19.0.0, SVG Export Plug-In . SVG Version: 6.00 Build 0)  -->
<svg version="1.1" id="Capa_1" xmlns="http://www.w3.org/2000/svg" xmlns:xlink="http://www.w3.org/1999/xlink" x="0px" y="0px"
	 viewBox="0 0 512 512" style="enable-background:new 0 0 512 512;" xml:space="preserve">
<g>
	<g>
		<path d="M282.208,19.67c-3.648-3.008-8.48-4.256-13.152-3.392l-256,48C5.472,65.686,0,72.278,0,79.99v352
			c0,7.68,5.472,14.304,13.056,15.712l256,48c0.96,0.192,1.984,0.288,2.944,0.288c3.68,0,7.328-1.28,10.208-3.68
			c3.68-3.04,5.792-7.584,5.792-12.32v-448C288,27.222,285.888,22.71,282.208,19.67z M256,460.694L32,418.71V93.27l224-41.984
			V460.694z"/>
	</g>
</g>
<g>
	<g>
		<path d="M144,175.99c-44.096,0-80,43.072-80,96s35.904,96,80,96s80-43.072,80-96S188.096,175.99,144,175.99z M144,335.99
			c-26.464,0-48-28.704-48-64c0-35.296,21.536-64,48-64s48,28.704,48,64S170.464,335.99,144,335.99z"/>
	</g>
</g>
<g>
	<g>
		<path d="M496,111.99H272c-8.832,0-16,7.168-16,16s7.168,16,16,16h208v224H272c-8.832,0-16,7.168-16,16c0,8.832,7.168,16,16,16h224
			c8.832,0,16-7.168,16-16v-256C512,119.158,504.832,111.99,496,111.99z"/>
	</g>
</g>
<g>
	<g>
		<path d="M508.608,118.134c-5.472-6.976-15.52-8.256-22.432-2.784L351.04,220.438l-70.464-44.832
			c-7.392-4.704-17.312-2.528-22.08,4.928c-4.736,7.456-2.528,17.344,4.896,22.08l80,50.88c2.624,1.664,5.632,2.496,8.608,2.496
			c3.456,0,6.944-1.12,9.792-3.392l144-112C512.8,135.158,514.048,125.11,508.608,118.134z"/>
	</g>
</g>
<g>
</g>
<g>
</g>
<g>
</g>
<g>
</g>
<g>
</g>
<g>
</g>
<g>
</g>
<g>
</g>
<g>
</g>
<g>
</g>
<g>
</g>
<g>
</g>
<g>
</g>
<g>
</g>
<g>
</g>
</svg>
