<svg width="24" height="24" viewBox="0 0 24 24" fill="none" xmlns="http://www.w3.org/2000/svg">
<path d="M22.9914 22.5873L20.4434 8.37145C20.3408 7.79915 19.8429 7.38255 19.2614 7.38255H15.0237C15.8183 6.59994 16.312 5.51273 16.312 4.31201C16.312 1.93434 14.3777 0 12 0C9.62235 0 7.68793 1.93434 7.68793 4.31201C7.68793 5.51273 8.1817 6.59994 8.97623 7.38255H4.7386C4.15709 7.38255 3.65923 7.79915 3.5566 8.37145L1.00858 22.5873C0.945896 22.9373 1.0414 23.2971 1.26963 23.5697C1.49779 23.8424 1.83505 23.9999 2.19057 23.9999H21.8094C22.1649 23.9999 22.5022 23.8424 22.7303 23.5697C22.9585 23.2971 23.0541 22.9373 22.9914 22.5873ZM12 2.40161C13.0534 2.40161 13.9104 3.25858 13.9104 4.31201C13.9104 5.36543 13.0534 6.22249 12 6.22249C10.9466 6.22249 10.0895 5.36543 10.0895 4.31201C10.0895 3.25858 10.9466 2.40161 12 2.40161ZM11.6862 18.5825C11.6237 18.6978 11.503 18.7696 11.3718 18.7696H10.8054C10.6784 18.7696 10.5609 18.7023 10.4967 18.5927L9.0948 16.1995L8.19827 17.1147V18.2168C8.19827 18.5221 7.95075 18.7696 7.64542 18.7696C7.3401 18.7696 7.09257 18.5221 7.09257 18.2168V13.8461C7.09257 13.5408 7.3401 13.2932 7.64542 13.2932C7.95075 13.2932 8.19827 13.5408 8.19827 13.8461V15.725L10.326 13.4089C10.3937 13.3352 10.4893 13.2932 10.5894 13.2932H11.0756C11.2192 13.2932 11.3488 13.379 11.4049 13.5112C11.4609 13.6434 11.4325 13.7963 11.3328 13.8995L9.8569 15.4261L11.6717 18.2168C11.7432 18.3269 11.7488 18.4672 11.6862 18.5825ZM17.1333 17.8532C17.1333 17.962 17.0837 18.0652 16.9987 18.133C16.7781 18.3091 16.4874 18.4671 16.1267 18.607C15.6871 18.7776 15.2419 18.8629 14.7912 18.8629C14.2183 18.8629 13.7192 18.7428 13.2931 18.5024C12.8674 18.2622 12.5473 17.9185 12.3331 17.4714C12.1189 17.0244 12.0119 16.5382 12.0119 16.0126C12.0119 15.4424 12.1314 14.9355 12.3705 14.4923C12.6095 14.049 12.9595 13.7092 13.4203 13.4725C13.7712 13.2907 14.2084 13.1997 14.7314 13.1997C15.4113 13.1997 15.9423 13.3424 16.3246 13.6275C16.4902 13.7511 16.6302 13.8951 16.7446 14.0595C16.854 14.2166 16.8762 14.4185 16.8036 14.5955C16.7311 14.7727 16.5738 14.9012 16.3856 14.9364L16.3843 14.9366C16.1638 14.9779 15.9403 14.8802 15.821 14.6903C15.7446 14.5688 15.6472 14.4648 15.5289 14.3783C15.3159 14.2226 15.0501 14.1448 14.7314 14.1448C14.2482 14.1448 13.864 14.2981 13.579 14.6043C13.2938 14.9107 13.1513 15.3652 13.1513 15.9678C13.1513 16.6179 13.2956 17.1053 13.5846 17.4303C13.8734 17.7553 14.2519 17.9178 14.7202 17.9178C14.9518 17.9178 15.184 17.8724 15.4169 17.7814C15.6496 17.6905 15.8495 17.5803 16.0164 17.4509V16.7559H15.2115C14.9566 16.7559 14.7502 16.5494 14.7502 16.2947C14.7502 16.0399 14.9567 15.8334 15.2115 15.8334H16.7756C16.9732 15.8334 17.1333 15.9936 17.1333 16.1911V17.8532Z" fill="black"/>
</svg>
