<svg width="24" height="24" viewBox="0 0 24 24" fill="none" xmlns="http://www.w3.org/2000/svg">
<g clip-path="url(#clip0)">
<path d="M10.6087 0.000366211H3.10909C2.69488 0.000366211 2.35913 0.336115 2.35913 0.75033V23.2492C2.35913 23.6634 2.69488 23.9992 3.10909 23.9992H10.6087C11.0229 23.9992 11.3587 23.6634 11.3587 23.2492V0.75033C11.3587 0.336115 11.0229 0.000366211 10.6087 0.000366211ZM9.85876 22.4993H3.85906V20.2494H7.60887V18.7495H3.85906V16.4996H6.10895V14.9996H3.85906V12.7497H7.60887V11.2498H3.85906V8.99993H6.10895V7.5H3.85906V5.25011H7.60887V3.75018H3.85906V1.50029H9.85876V22.4993Z" fill="#2E2E2E"/>
<path d="M20.5833 18.9747L18.1084 21.4421V2.55798L20.5758 5.02536L21.6333 3.96792L17.8834 0.218099C17.5909 -0.0726996 17.1185 -0.0726996 16.826 0.218099L13.0762 3.96792L14.1336 5.02536L16.6085 2.55798V21.4421L14.1411 18.9747L13.0837 20.0321L16.8335 23.7819C17.126 24.0727 17.5984 24.0727 17.8909 23.7819L21.6408 20.0321L20.5833 18.9747Z" fill="#2E2E2E"/>
</g>
<defs>
<clipPath id="clip0">
<rect width="24" height="24" fill="white"/>
</clipPath>
</defs>
</svg>
