<svg width="16" height="16" viewBox="0 0 16 16" fill="none" xmlns="http://www.w3.org/2000/svg">
<path d="M8 0C3.582 0 0 3.582 0 8C0 12.418 3.582 16 8 16C12.418 16 16 12.418 16 8C16 3.582 12.418 0 8 0ZM12 12.5C7.313 12.5 3.5 8.687 3.5 4C3.5 3.724 3.724 3.5 4 3.5H5.846C6.122 3.5 6.346 3.724 6.346 4C6.346 4.864 6.534 5.687 6.905 6.445C6.964 6.565 6.972 6.702 6.928 6.828C6.885 6.954 6.793 7.057 6.673 7.115L5.927 7.475C6.548 8.556 7.444 9.453 8.524 10.072L8.884 9.327C8.942 9.207 9.045 9.116 9.171 9.072C9.297 9.029 9.435 9.037 9.554 9.095C10.314 9.466 11.136 9.654 11.999 9.654C12.275 9.654 12.499 9.878 12.499 10.154V12H12.5C12.5 12.276 12.276 12.5 12 12.5Z" fill="#2E2E2E"/>
</svg>
